<?xml version="1.0"?>
<svg xmlns="http://www.w3.org/2000/svg" xmlns:xlink="http://www.w3.org/1999/xlink" xmlns:svgjs="http://svgjs.com/svgjs" version="1.1" width="512" height="512" x="0" y="0" viewBox="0 0 512 512" style="enable-background:new 0 0 512 512" xml:space="preserve" class=""><g><path xmlns="http://www.w3.org/2000/svg" d="m255.995 66.028h.01z" fill="#ff0000" data-original="#000000" style="" class=""/><g xmlns="http://www.w3.org/2000/svg"><path d="m501.744 225.703-42.745-14.25c-1.356-6.197-2.999-12.339-4.918-18.382l29.889-33.705c4.284-4.831 4.996-11.861 1.768-17.452l-16.066-27.827c-3.228-5.591-9.666-8.489-15.997-7.196l-44.223 9.048c-4.254-4.657-8.729-9.133-13.39-13.394l9.048-44.218c1.295-6.326-1.604-12.77-7.195-15.998l-27.828-16.067c-5.589-3.228-12.62-2.518-17.452 1.768l-33.705 29.889c-6.038-1.917-12.18-3.562-18.381-4.921l-14.252-42.742c-2.043-6.125-7.775-10.256-14.231-10.256h-32.133c-6.456 0-12.188 4.131-14.229 10.255l-14.252 42.742c-6.201 1.36-12.343 3.004-18.381 4.921l-33.705-29.888c-4.832-4.285-11.862-4.995-17.452-1.768l-27.828 16.067c-5.592 3.228-8.49 9.672-7.195 15.998l9.048 44.218c-4.661 4.26-9.136 8.736-13.39 13.394l-44.223-9.048c-6.327-1.294-12.77 1.605-15.997 7.196l-16.066 27.827c-3.229 5.591-2.517 12.622 1.768 17.452l29.889 33.705c-1.919 6.043-3.562 12.185-4.918 18.382l-42.745 14.25c-6.126 2.042-10.257 7.774-10.257 14.23v32.134c0 6.457 4.132 12.189 10.258 14.23l42.742 14.243c1.356 6.2 3 12.344 4.919 18.389l-29.889 33.705c-4.284 4.831-4.996 11.861-1.768 17.452l16.066 27.827c3.229 5.591 9.669 8.49 15.997 7.196l44.223-9.048c4.256 4.659 8.73 9.134 13.39 13.39l-9.048 44.222c-1.294 6.325 1.604 12.769 7.195 15.997l27.828 16.066c5.593 3.229 12.621 2.517 17.452-1.768l33.705-29.889c6.042 1.918 12.184 3.562 18.382 4.918l14.25 42.745c2.042 6.125 7.774 10.256 14.23 10.256h32.133c6.456 0 12.188-4.131 14.23-10.256l14.25-42.745c6.198-1.356 12.34-3 18.382-4.918l33.705 29.889c4.831 4.284 11.861 4.996 17.452 1.768l27.828-16.066c5.591-3.228 8.489-9.672 7.195-15.997l-9.048-44.222c4.659-4.256 9.134-8.731 13.39-13.39l44.223 9.048c6.327 1.296 12.77-1.604 15.997-7.196l16.066-27.827c3.229-5.591 2.517-12.622-1.768-17.452l-29.889-33.705c1.919-6.045 3.563-12.189 4.919-18.389l42.742-14.243c6.126-2.041 10.258-7.773 10.258-14.23v-32.134c.003-6.456-4.128-12.188-10.253-14.23zm-19.744 35.551-40.778 13.588c-5.24 1.747-9.098 6.232-10.038 11.675-1.803 10.426-4.563 20.743-8.202 30.663-1.901 5.182-.803 10.989 2.859 15.119l28.51 32.15-5.255 9.102-42.18-8.63c-5.404-1.105-10.975.842-14.513 5.072-6.772 8.097-14.313 15.637-22.411 22.412-4.229 3.538-6.176 9.11-5.07 14.512l8.63 42.179-9.103 5.255-32.15-28.51c-4.13-3.664-9.938-4.76-15.119-2.859-9.915 3.638-20.229 6.397-30.657 8.203-5.441.942-9.925 4.797-11.672 10.036l-13.595 40.779h-10.512l-13.595-40.78c-1.747-5.239-6.23-9.094-11.672-10.036-10.428-1.805-20.742-4.564-30.657-8.203-5.181-1.901-10.989-.803-15.119 2.859l-32.15 28.51-9.103-5.255 8.63-42.179c1.105-5.402-.842-10.974-5.07-14.512-8.099-6.775-15.639-14.315-22.411-22.412-3.539-4.23-9.113-6.177-14.513-5.072l-42.18 8.63-5.255-9.102 28.51-32.15c3.662-4.129 4.761-9.937 2.859-15.119-3.64-9.92-6.399-20.237-8.202-30.663-.94-5.443-4.798-9.929-10.038-11.675l-40.778-13.587v-10.51l40.78-13.596c5.239-1.747 9.095-6.231 10.036-11.673 1.804-10.423 4.563-20.738 8.202-30.656 1.901-5.182.803-10.989-2.859-15.119l-28.51-32.15 5.255-9.102 42.18 8.63c5.405 1.104 10.976-.843 14.513-5.072 6.767-8.09 14.31-15.635 22.417-22.425 4.225-3.538 6.169-9.108 5.064-14.507l-8.629-42.171 9.102-5.255 32.15 28.51c4.13 3.664 9.938 4.76 15.119 2.859 9.905-3.634 20.223-6.397 30.667-8.212 5.437-.945 9.916-4.798 11.661-10.034l13.596-40.771h10.512l13.596 40.772c1.745 5.235 6.225 9.089 11.661 10.034 10.444 1.815 20.762 4.578 30.667 8.212 5.181 1.901 10.989.804 15.119-2.859l32.15-28.51 9.102 5.255-8.629 42.171c-1.104 5.399.84 10.969 5.064 14.507 8.107 6.79 15.65 14.334 22.417 22.425 3.538 4.229 9.112 6.175 14.513 5.072l42.18-8.63 5.255 9.102-28.51 32.15c-3.662 4.129-4.761 9.937-2.859 15.119 3.639 9.918 6.398 20.233 8.202 30.656.941 5.442 4.797 9.926 10.036 11.673l40.78 13.595z" fill="#ff0000" data-original="#000000" style="" class=""/><path d="m256 112.467c-79.145 0-143.533 64.389-143.533 143.533s64.388 143.533 143.533 143.533 143.533-64.388 143.533-143.533-64.388-143.533-143.533-143.533zm0 30c15.317 0 29.932 3.056 43.277 8.579l-25.575 44.296c-5.621-1.643-11.557-2.541-17.702-2.541s-12.081.898-17.702 2.541l-25.575-44.296c13.345-5.523 27.96-8.579 43.277-8.579zm33.2 113.533c0 18.307-14.894 33.2-33.2 33.2s-33.2-14.894-33.2-33.2 14.894-33.2 33.2-33.2 33.2 14.893 33.2 33.2zm-102.434 89.914c-23.178-17.889-39.277-44.521-43.307-74.914h51.154c2.902 11.873 9.166 22.434 17.723 30.626zm7.847-104.914h-51.154c4.03-30.393 20.128-57.025 43.307-74.915l25.571 44.288c-8.558 8.193-14.822 18.754-17.724 30.627zm61.387 128.533c-15.317 0-29.932-3.056-43.277-8.579l25.575-44.296c5.621 1.643 11.557 2.541 17.702 2.541s12.081-.898 17.702-2.541l25.575 44.296c-13.345 5.523-27.96 8.579-43.277 8.579zm69.234-23.619-25.571-44.288c8.557-8.193 14.821-18.754 17.723-30.626h51.154c-4.029 30.393-20.127 57.025-43.306 74.914zm-7.847-104.914c-2.902-11.873-9.166-22.434-17.723-30.627l25.571-44.288c23.179 17.889 39.277 44.521 43.307 74.915z" fill="#ff0000" data-original="#000000" style="" class=""/></g></g></svg>
